<svg id="basketicon" xmlns="http://www.w3.org/2000/svg" width="25.494" height="23.996" viewBox="0 0 25.494 23.996">
  <path id="Path_10" data-name="Path 10" d="M24.575,36.754a2.591,2.591,0,1,1-2.591-2.591A2.591,2.591,0,0,1,24.575,36.754Z" transform="translate(-1.508 -15.35)"/>
  <path id="Path_12" data-name="Path 12" d="M13.191,36.754A2.591,2.591,0,1,1,10.6,34.163,2.591,2.591,0,0,1,13.191,36.754Z" transform="translate(-0.489 -15.35)"/>
  <g id="Path_11" data-name="Path 11">
    <path id="Path_18" data-name="Path 18" d="M9.9,29.775a3.354,3.354,0,0,1-3.181-2.448L4.973,19.744q-.016-.059-.027-.12l-.779-3.392H1.116a1.366,1.366,0,0,1,0-2.731H5.254a1.365,1.365,0,0,1,1.331,1.061l.792,3.451h16.5a1.366,1.366,0,0,1,1.335,1.657l-1.656,7.569c-.006.03-.014.059-.023.089a3.389,3.389,0,0,1-3.465,2.439l-9.972,0C10.029,29.773,9.963,29.775,9.9,29.775ZM8,20.743l1.354,5.9a.643.643,0,0,0,.654.4l10.141,0a.69.69,0,0,0,.747-.44l1.282-5.854Z" transform="translate(0.25 -13.5)"/>
  </g>
</svg>
