<svg id="hearticon" xmlns="http://www.w3.org/2000/svg" width="25.91" height="23.772" viewBox="0 0 25.91 23.772">
  <path id="Icon_material-favorite-border" data-name="Icon material-favorite-border" d="M21.785,4.5a7.758,7.758,0,0,0-5.83,2.708A7.758,7.758,0,0,0,10.125,4.5,7.056,7.056,0,0,0,3,11.625c0,4.9,4.4,8.887,11.077,14.95l1.878,1.7,1.878-1.71c6.672-6.05,11.077-10.04,11.077-14.937A7.056,7.056,0,0,0,21.785,4.5Zm-5.7,20.145-.13.13-.13-.13C9.659,19.061,5.591,15.369,5.591,11.625a4.428,4.428,0,0,1,4.534-4.534,5.065,5.065,0,0,1,4.625,3.057h2.423a5.033,5.033,0,0,1,4.612-3.057,4.428,4.428,0,0,1,4.534,4.534C26.319,15.369,22.251,19.061,16.085,24.645Z" transform="translate(-3 -4.5)"/>
</svg>
